<?xml version="1.0" encoding="UTF-8" standalone="no"?>
<!-- Created with Inkscape (http://www.inkscape.org/) -->

<svg
   version="1.1"
   id="svg2"
   width="791.33331"
   height="192.49333"
   viewBox="0 0 791.33331 192.49333"
   sodipodi:docname="TPMAC-Logo-All-White.eps"
   xmlns:inkscape="http://www.inkscape.org/namespaces/inkscape"
   xmlns:sodipodi="http://sodipodi.sourceforge.net/DTD/sodipodi-0.dtd"
   xmlns="http://www.w3.org/2000/svg"
   xmlns:svg="http://www.w3.org/2000/svg">
  <defs
     id="defs6" />
  <sodipodi:namedview
     id="namedview4"
     pagecolor="#ffffff"
     bordercolor="#000000"
     borderopacity="0.25"
     inkscape:showpageshadow="2"
     inkscape:pageopacity="0.0"
     inkscape:pagecheckerboard="0"
     inkscape:deskcolor="#d1d1d1" />
  <g
     id="g8"
     inkscape:groupmode="layer"
     inkscape:label="ink_ext_XXXXXX"
     transform="matrix(1.3333333,0,0,-1.3333333,0,192.49333)">
    <g
       id="g10"
       transform="scale(0.1)">
      <path
         d="m 5506.02,333.691 -261.87,-136.332 66.03,231.539 z m -161.98,213.918 21.92,76.114 61.6,-23.094 z m 39.46,138.692 30.08,105.371 37.27,-130.738 z m 143.3,-290.731 -170.73,83.114 124.39,78.718 z m -81.87,523.176 c -3.91,12.949 -16.47,21.656 -31.18,21.656 -14.74,0 -27.31,-8.707 -31.28,-21.871 L 5134.67,49.0313 c -2.21,-8.543 -0.94,-17.75 3.5,-25.2422 4.35,-7.3203 11.23,-12.4805 18.96,-14.42972 8.11,-2.42969 17.17,-1.41016 24.72,2.78902 7.49,4.1914 13,11.2813 15.11,19.2032 l 22.63,80.1684 337.69,176.199 73.2,-256.2385 c 3.81,-14.0508 16.33,-23.49222 31.14,-23.49222 2.84,0 6.25,0.55078 8.26,1.23047 8.32,2.13285 15.3,7.39065 19.65,14.83985 4.37,7.5234 5.55,16.7031 3.2,25.1523 l -247.8,869.5351"
         style="fill:#ffffff;fill-opacity:1;fill-rule:nonzero;stroke:none"
         id="path12" />
      <path
         d="m 5532.49,820.426 c 1.9,-8.5 6.98,-15.723 14.31,-20.352 15.06,-9.461 35.05,-4.945 44.55,10.059 21.31,33.59 32.57,72.422 32.57,112.324 0,115.903 -94.21,210.193 -210.01,210.193 -115.89,0 -210.2,-94.29 -210.2,-210.193 0,-47.152 15.31,-91.789 44.34,-129.133 6.19,-7.82 15.48,-12.297 25.44,-12.297 7.29,0 14.34,2.442 19.72,6.782 14.06,10.961 16.57,31.316 5.62,45.351 -20.02,25.766 -30.59,56.645 -30.59,89.297 0,80.223 65.27,145.493 145.51,145.493 80.2,0 145.48,-65.27 145.48,-145.493 0,-27.789 -7.79,-54.676 -22.46,-77.715 -4.64,-7.238 -6.15,-15.859 -4.28,-24.316"
         style="fill:#ffffff;fill-opacity:1;fill-rule:nonzero;stroke:none"
         id="path14" />
      <path
         d="m 5584.75,613.992 c 2.38,-0.531 4.79,-0.777 7.12,-0.777 6.13,0 12.1,1.73 17.39,5.109 103.96,67.035 166.05,180.735 166.05,304.133 0,199.293 -162.11,361.433 -361.4,361.433 -199.27,0 -361.42,-162.14 -361.42,-361.433 0,-123.551 62.09,-237.242 166.16,-304.199 14.2,-8.906 34.08,-5.297 44.91,9.773 9.47,14.992 5.05,35.004 -9.82,44.649 -85.38,55.109 -136.39,148.48 -136.39,249.777 0,163.623 133.12,296.723 296.74,296.723 163.61,0 296.73,-133.1 296.73,-296.723 0,-101.363 -51.01,-194.648 -136.46,-249.625 -14.83,-9.625 -19.24,-29.644 -9.79,-44.633 4.58,-7.285 11.77,-12.332 20.18,-14.207"
         style="fill:#ffffff;fill-opacity:1;fill-rule:nonzero;stroke:none"
         id="path16" />
      <path
         d="m 5413.75,1443.73 c -287.43,0 -521.27,-233.83 -521.27,-521.273 0,-193.766 106.4,-370.402 277.65,-460.953 7.51,-4.027 16.17,-4.879 24.49,-2.387 8.33,2.52 15.14,8.133 19.19,15.758 4.07,7.531 4.91,16.223 2.44,24.477 -2.51,8.32 -8.13,15.156 -15.81,19.281 -150.06,79.355 -243.26,234.086 -243.26,403.824 0,251.763 204.89,456.573 456.73,456.573 251.75,0 456.59,-204.81 456.59,-456.573 0,-169.84 -93.41,-324.637 -243.83,-404.023 -7.59,-4.059 -13.18,-10.825 -15.71,-19.047 -2.57,-8.309 -1.74,-17.078 2.3,-24.598 5.62,-10.695 16.58,-17.348 28.57,-17.348 4.75,0 9.6,1.157 14.95,3.696 171.61,90.566 278.21,267.32 278.21,461.32 0,287.443 -233.83,521.273 -521.24,521.273"
         style="fill:#ffffff;fill-opacity:1;fill-rule:nonzero;stroke:none"
         id="path18" />
      <path
         d="m 4548.55,0 c -11.42,0 -20.7,9.26953 -20.7,20.6992 V 1421.99 c 0,11.43 9.28,20.7 20.7,20.7 11.44,0 20.72,-9.27 20.72,-20.7 V 20.6992 C 4569.27,9.26953 4559.99,0 4548.55,0"
         style="fill:#ffffff;fill-opacity:1;fill-rule:nonzero;stroke:none"
         id="path20" />
      <path
         d="m 844.609,1354.39 h -91.535 c -5.554,0 -9.988,4.45 -9.988,10 v 62.7 c 0,5.55 4.434,9.99 9.988,9.99 H 1026.6 c 5.56,0 9.99,-4.44 9.99,-9.99 v -62.7 c 0,-5.55 -4.43,-10 -9.99,-10 h -92.659 v -295.73 c 0,-5.55 -4.429,-9.99 -9.976,-9.99 h -69.367 c -5.555,0 -9.989,4.44 -9.989,9.99 v 295.73"
         style="fill:#ffffff;fill-opacity:1;fill-rule:nonzero;stroke:none"
         id="path22" />
      <path
         d="m 1222.88,1058.66 c 0,-5.55 -4.43,-9.99 -9.99,-9.99 h -69.37 c -5.54,0 -9.98,4.44 -9.98,9.99 v 368.43 c 0,5.55 4.44,9.99 9.98,9.99 h 69.37 c 5.56,0 9.99,-4.44 9.99,-9.99 v -145.38 h 143.7 v 145.38 c 0,5.55 4.47,9.99 9.99,9.99 h 68.24 c 5.56,0 9.99,-4.44 9.99,-9.99 v -368.43 c 0,-5.55 -4.43,-9.99 -9.99,-9.99 h -68.24 c -5.52,0 -9.99,4.44 -9.99,9.99 v 140.38 h -143.7 v -140.38"
         style="fill:#ffffff;fill-opacity:1;fill-rule:nonzero;stroke:none"
         id="path24" />
      <path
         d="m 1665.5,1199.04 v -67.7 h 169.77 c 5.55,0 9.98,-4.44 9.98,-9.99 v -62.69 c 0,-5.55 -4.43,-9.99 -9.98,-9.99 h -248.58 c -5.55,0 -9.98,4.44 -9.98,9.99 v 368.43 c 0,5.55 4.43,9.99 9.98,9.99 h 248.58 c 5.55,0 9.98,-4.44 9.98,-9.99 v -62.7 c 0,-5.55 -4.43,-10 -9.98,-10 H 1665.5 v -72.68 h 130.4 c 5.55,0 9.99,-4.43 9.99,-9.99 v -62.69 c 0,-5.55 -4.44,-9.99 -9.99,-9.99 h -130.4"
         style="fill:#ffffff;fill-opacity:1;fill-rule:nonzero;stroke:none"
         id="path26" />
      <path
         d="m 2346.06,1308.9 c 0,16.09 -8.86,46.05 -48.81,46.05 h -63.27 v -92.65 h 64.93 c 38.29,1.1 47.15,32.17 47.15,46.6 z m -112.08,-250.24 c 0,-5.55 -4.43,-9.99 -9.99,-9.99 h -69.36 c -5.55,0 -9.98,4.44 -9.98,9.99 v 368.43 c 0,5.55 4.43,9.99 9.98,9.99 h 139.85 c 107.65,0 140.38,-75.46 140.38,-128.18 0,-77.68 -68.24,-129.83 -133.75,-129.83 h -67.13 v -120.41"
         style="fill:#ffffff;fill-opacity:1;fill-rule:nonzero;stroke:none"
         id="path28" />
      <path
         d="m 2629.44,1058.66 c 0,-5.55 -4.43,-9.99 -9.98,-9.99 h -69.36 c -5.56,0 -9.99,4.44 -9.99,9.99 v 368.43 c 0,5.55 4.43,9.99 9.99,9.99 h 69.36 c 5.55,0 9.98,-4.44 9.98,-9.99 v -145.38 h 143.71 v 145.38 c 0,5.55 4.44,9.99 9.98,9.99 h 68.25 c 5.55,0 9.99,-4.44 9.99,-9.99 v -368.43 c 0,-5.55 -4.44,-9.99 -9.99,-9.99 h -68.25 c -5.54,0 -9.98,4.44 -9.98,9.99 v 140.38 h -143.71 v -140.38"
         style="fill:#ffffff;fill-opacity:1;fill-rule:nonzero;stroke:none"
         id="path30" />
      <path
         d="m 3267.33,1243.42 c 0,28.87 -12.76,116.53 -102.1,116.53 -89.88,0 -102.64,-87.66 -102.64,-116.53 0,-28.83 12.76,-117.62 102.64,-117.62 89.34,0 102.1,88.79 102.1,117.62 z m 90.45,0 c 0,-83.22 -45.5,-200.86 -192.55,-200.86 -147.6,0 -193.09,117.64 -193.09,200.86 0,81.01 45.49,200.31 193.09,200.31 147.05,0 192.55,-119.3 192.55,-200.31"
         style="fill:#ffffff;fill-opacity:1;fill-rule:nonzero;stroke:none"
         id="path32" />
      <path
         d="m 3478.53,1048.67 c -5.55,0 -9.99,4.44 -9.99,9.99 v 375.64 c 0,4.43 3.36,8.33 7.8,8.33 5.54,0 10.52,-2.22 14.41,-5.55 l 210.87,-196.97 v 186.98 c 0,5.55 4.43,9.99 9.99,9.99 h 68.79 c 5.55,0 9.98,-4.44 9.98,-9.99 v -373.98 c 0,-3.88 -3.31,-7.22 -7.21,-7.22 -4.43,0 -8.87,1.66 -12.22,5 l -213.07,201.42 v -193.65 c 0,-5.55 -4.43,-9.99 -9.98,-9.99 h -69.37"
         style="fill:#ffffff;fill-opacity:1;fill-rule:nonzero;stroke:none"
         id="path34" />
      <path
         d="m 4012.19,1199.04 v -67.7 h 169.76 c 5.56,0 9.99,-4.44 9.99,-9.99 v -62.69 c 0,-5.55 -4.43,-9.99 -9.99,-9.99 h -248.57 c -5.56,0 -9.99,4.44 -9.99,9.99 v 368.43 c 0,5.55 4.43,9.99 9.99,9.99 h 248.57 c 5.56,0 9.99,-4.44 9.99,-9.99 v -62.7 c 0,-5.55 -4.43,-10 -9.99,-10 h -169.76 v -72.68 h 130.36 c 5.55,0 9.99,-4.43 9.99,-9.99 v -62.69 c 0,-5.55 -4.44,-9.99 -9.99,-9.99 h -130.36"
         style="fill:#ffffff;fill-opacity:1;fill-rule:nonzero;stroke:none"
         id="path36" />
      <path
         d="m 361.668,913.215 c 2.207,4.988 7.219,8.324 12.766,8.324 5.554,0 10.527,-3.336 12.761,-8.867 L 522.027,538.125 c 1.664,-4.434 -1.687,-9.43 -6.668,-9.43 h -74.375 c -6.093,0 -11.062,3.879 -13.3,9.43 L 363.875,731.223 273.992,532.574 c -2.234,-4.992 -7.207,-8.312 -12.762,-8.312 -5.546,0 -10.558,3.32 -12.765,8.312 L 158.594,731.223 94.7734,538.125 c -2.2265,-5.551 -7.207,-9.43 -13.3281,-9.43 H 7.09766 c -5.00782,0 -8.32813,4.996 -6.667972,9.43 L 135.262,912.672 c 2.234,5.531 7.218,8.867 12.226,8.867 5.547,0 11.106,-3.336 13.301,-8.324 L 261.23,695.707 361.668,913.215"
         style="fill:#ffffff;fill-opacity:1;fill-rule:nonzero;stroke:none"
         id="path38" />
      <path
         d="m 739.297,676.855 h 58.262 L 768.68,748.977 Z M 952.359,537.57 c 2.2,-3.879 -1.109,-8.875 -5.543,-8.875 h -79.355 c -6.098,0 -11.645,3.879 -13.879,9.43 l -27.723,69.363 H 711.531 l -27.722,-69.363 c -2.231,-5.551 -7.786,-9.43 -13.879,-9.43 h -79.344 c -4.434,0 -7.758,4.996 -6.098,8.875 l 170.344,375.102 c 2.195,5.531 7.754,8.867 13.301,8.867 5.558,0 11.101,-3.336 13.308,-8.867 L 952.359,537.57"
         style="fill:#ffffff;fill-opacity:1;fill-rule:nonzero;stroke:none"
         id="path40" />
      <path
         d="m 1326.13,644.656 c 0,-67.683 -58.81,-120.394 -143.71,-120.394 -53.82,0 -97.67,13.308 -144.81,37.73 -5.01,2.219 -6.67,8.328 -4.44,13.321 l 30.5,56.585 c 2.24,4.993 8.33,6.668 13.34,4.45 35.51,-16.094 69.9,-28.86 102.1,-28.86 28.84,0 53.24,13.864 53.24,33.297 0,24.406 -29.95,34.953 -66.58,46.598 -56.03,18.316 -126.5,39.961 -126.5,119.851 0,72.704 53.81,115.965 128.16,115.965 24.43,0 75.45,-3.32 140.38,-33.277 5.01,-2.777 7.22,-8.328 5.01,-13.883 l -24.98,-57.141 c -2.2,-4.992 -7.75,-7.226 -13.3,-4.992 -24.41,8.867 -70.49,25.524 -101.56,25.524 -23.29,0 -44.93,-7.227 -44.38,-28.301 2.23,-23.863 41.06,-34.41 84.33,-49.945 53.82,-18.86 113.2,-45.5 113.2,-116.528"
         style="fill:#ffffff;fill-opacity:1;fill-rule:nonzero;stroke:none"
         id="path42" />
      <path
         d="m 1496.88,834.418 h -91.54 c -5.55,0 -9.98,4.453 -9.98,10.008 v 62.691 c 0,5.555 4.43,9.988 9.98,9.988 h 273.53 c 5.55,0 9.99,-4.433 9.99,-9.988 v -62.691 c 0,-5.555 -4.44,-10.008 -9.99,-10.008 h -92.65 v -295.73 c 0,-5.551 -4.43,-9.993 -9.99,-9.993 h -69.37 c -5.54,0 -9.98,4.442 -9.98,9.993 v 295.73"
         style="fill:#ffffff;fill-opacity:1;fill-rule:nonzero;stroke:none"
         id="path44" />
      <path
         d="m 2099.79,676.855 h 58.26 l -28.84,72.122 z M 2312.86,537.57 c 2.24,-3.879 -1.12,-8.875 -5.56,-8.875 h -79.34 c -6.1,0 -11.65,3.879 -13.85,9.43 l -27.75,69.363 h -114.29 l -27.77,-69.363 c -2.19,-5.551 -7.75,-9.43 -13.87,-9.43 h -79.32 c -4.47,0 -7.78,4.996 -6.13,8.875 l 170.35,375.102 c 2.24,5.531 7.78,8.867 13.34,8.867 5.52,0 11.06,-3.336 13.3,-8.867 L 2312.86,537.57"
         style="fill:#ffffff;fill-opacity:1;fill-rule:nonzero;stroke:none"
         id="path46" />
      <path
         d="m 2551.28,611.367 c 89.88,0 102.64,83.242 102.64,112.086 0,28.856 -12.76,111.527 -102.64,111.527 h -51.62 V 611.367 Z m -129.86,-82.672 c -5.55,0 -9.99,4.442 -9.99,9.993 v 368.429 c 0,5.555 4.44,9.988 9.99,9.988 h 129.86 c 147.6,0 192.52,-112.648 192.52,-193.652 0,-83.226 -44.92,-194.758 -192.52,-194.758 h -129.86"
         style="fill:#ffffff;fill-opacity:1;fill-rule:nonzero;stroke:none"
         id="path48" />
      <path
         d="m 2994.41,532.574 c -2.2,-4.992 -7.75,-8.312 -13.31,-8.312 -5.55,0 -11.1,3.32 -13.3,8.312 l -170.34,375.645 c -1.66,3.89 1.65,8.886 6.09,8.886 h 79.35 c 6.09,0 11.65,-3.89 13.88,-9.429 l 84.87,-210.852 84.9,210.852 c 2.24,5.539 7.78,9.429 13.88,9.429 h 79.34 c 4.45,0 7.76,-4.996 5.56,-8.886 L 2994.41,532.574"
         style="fill:#ffffff;fill-opacity:1;fill-rule:nonzero;stroke:none"
         id="path50" />
      <path
         d="m 3352.67,538.688 c 0,-5.551 -4.44,-9.993 -9.99,-9.993 h -68.79 c -5.54,0 -9.99,4.442 -9.99,9.993 v 368.429 c 0,5.555 4.45,9.988 9.99,9.988 h 68.79 c 5.55,0 9.99,-4.433 9.99,-9.988 V 538.688"
         style="fill:#ffffff;fill-opacity:1;fill-rule:nonzero;stroke:none"
         id="path52" />
      <path
         d="m 3760.39,794.473 c -3.86,-3.317 -9.99,-3.317 -13.85,0.562 -23.32,23.863 -60.49,43.836 -89.91,43.836 -89.87,0 -102.64,-86.562 -102.64,-115.418 0,-28.844 12.77,-114.863 103.22,-114.863 31.07,0 67.67,17.773 93.76,39.402 4.44,3.336 10.53,3.336 13.89,-1.117 l 38.25,-45.492 c 3.89,-4.438 3.35,-11.09 -0.54,-14.981 -40.49,-38.293 -87.1,-62.695 -145.94,-62.695 -147.6,0 -193.1,116.52 -193.1,199.746 0,81.004 45.5,199.203 193.1,199.203 63.27,0 109.31,-27.203 149.26,-70.476 3.89,-3.879 3.35,-10.535 -0.55,-14.426 l -44.95,-43.281"
         style="fill:#ffffff;fill-opacity:1;fill-rule:nonzero;stroke:none"
         id="path54" />
      <path
         d="m 4012.19,679.07 v -67.703 h 169.76 c 5.56,0 9.99,-4.433 9.99,-9.984 v -62.695 c 0,-5.551 -4.43,-9.993 -9.99,-9.993 h -248.57 c -5.56,0 -9.99,4.442 -9.99,9.993 v 368.429 c 0,5.555 4.43,9.988 9.99,9.988 h 248.57 c 5.56,0 9.99,-4.433 9.99,-9.988 v -62.691 c 0,-5.555 -4.43,-10.008 -9.99,-10.008 h -169.76 v -72.68 h 130.36 c 5.55,0 9.99,-4.433 9.99,-9.984 v -62.695 c 0,-5.551 -4.44,-9.989 -9.99,-9.989 h -130.36"
         style="fill:#ffffff;fill-opacity:1;fill-rule:nonzero;stroke:none"
         id="path56" />
      <path
         d="m 1589.6,322.219 c -3.31,-2.758 -8.87,-2.758 -12.22,0 -25.53,21.09 -65.47,41.062 -104.3,41.062 -125.96,0 -143.71,-119.301 -143.71,-158.691 0,-39.942 17.75,-158.1291 143.71,-158.1291 41.61,0 78.77,18.8711 105.41,39.3985 3.9,2.7617 8.87,2.2187 11.65,-1.1211 5.55,-7.207 11.11,-13.3164 17.2,-20.5274 2.78,-3.8789 2.23,-8.8711 -1.08,-12.1992 C 1572.4,22.6016 1531.34,3.73047 1473.08,3.73047 1324.94,3.73047 1281.1,121.371 1281.1,204.59 c 0,81.019 43.84,199.191 191.98,199.191 60.46,0 100.98,-20.531 133.72,-52.152 3.32,-3.328 3.32,-8.879 0,-12.199 l -17.2,-17.211"
         style="fill:#ffffff;fill-opacity:1;fill-rule:nonzero;stroke:none"
         id="path58" />
      <path
         d="m 2031.1,203.48 c 0,39.399 -17.77,155.918 -143.16,155.918 -125.96,0 -143.7,-116.519 -143.7,-155.918 0,-39.39 17.74,-157.0191 143.7,-157.0191 125.39,0 143.16,117.6291 143.16,157.0191 z m 48.82,0 c 0,-83.23 -43.84,-199.74953 -191.98,-199.74953 -148.14,0 -191.98,116.51953 -191.98,199.74953 0,81.008 43.84,199.2 191.98,199.2 148.14,0 191.98,-118.192 191.98,-199.2"
         style="fill:#ffffff;fill-opacity:1;fill-rule:nonzero;stroke:none"
         id="path60" />
      <path
         d="m 2409.88,11.5 c -1.66,-4.42969 -6.09,-7.21094 -10.53,-7.21094 -5.01,0 -8.87,2.78125 -11.1,7.21094 L 2273.96,284.488 2188.48,16.4883 c -1.08,-4.4297 -5.51,-7.75783 -10.52,-7.75783 h -34.4 c -3.89,0 -7.2,3.87113 -5.55,7.75783 l 122.08,377.8707 c 1.11,3.332 4.97,6.102 8.86,6.102 3.89,0 7.79,-2.231 9.45,-6.102 l 120.95,-294.078 121.5,294.078 c 1.11,3.871 5.01,6.102 8.33,6.102 3.88,0 7.2,-2.231 8.89,-6.102 L 2660.69,16.4883 c 1.66,-3.8867 -1.66,-7.75783 -5.55,-7.75783 h -34.39 c -5.01,0 -9.45,3.32813 -11.1,7.75783 L 2524.2,285.039 2409.88,11.5"
         style="fill:#ffffff;fill-opacity:1;fill-rule:nonzero;stroke:none"
         id="path62" />
      <path
         d="m 2906.26,197.922 c 65.47,1.68 80.43,54.387 80.43,79.918 0,27.18 -14.42,79.879 -82.67,79.879 H 2804.7 V 197.922 Z M 2804.7,17.0508 c 0,-4.4492 -3.89,-8.32033 -8.32,-8.32033 h -30.51 c -4.44,0 -8.32,3.87113 -8.32,8.32033 V 388.801 c 0,4.437 3.88,8.328 8.32,8.328 h 134.83 c 102.65,0 133.15,-71.02 133.15,-119.289 0,-72.692 -64.9,-120.418 -124.85,-120.418 H 2804.7 V 17.0508"
         style="fill:#ffffff;fill-opacity:1;fill-rule:nonzero;stroke:none"
         id="path64" />
      <path
         d="m 3160.79,154.641 h 122.66 l -61.62,151.5 z m 138.73,-38.821 h -154.27 l -39.94,-99.3317 c -2.2,-4.9883 -6.67,-7.75783 -11.65,-7.75783 h -34.96 c -3.87,0 -6.64,3.87113 -4.98,7.75783 L 3211.3,393.238 c 1.66,4.453 6.09,7.223 11.1,7.223 4.44,0 8.3,-2.77 9.99,-7.223 L 3392.71,16.4883 c 1.7,-3.8867 -1.08,-7.75783 -4.97,-7.75783 h -36.05 c -5.01,0 -9.45,2.76953 -11.68,7.75783 l -40.49,99.3317"
         style="fill:#ffffff;fill-opacity:1;fill-rule:nonzero;stroke:none"
         id="path66" />
      <path
         d="m 3498.54,8.73047 c -4.43,0 -8.33,3.87113 -8.33,8.32033 V 392.141 c 0,4.429 3.9,8.32 8.33,8.32 h 0.58 c 4.97,0 10.53,-2.231 13.84,-6.102 l 242.49,-280.218 v 274.66 c 0,4.437 3.88,8.328 8.33,8.328 h 30.52 c 4.44,0 8.31,-3.891 8.31,-8.328 V 13.1602 c 0,-4.42973 -3.87,-7.76957 -8.31,-7.76957 -5,0 -9.98,2.21875 -13.33,6.10937 L 3537.95,292.809 V 17.0508 c 0,-4.4492 -3.9,-8.32033 -8.33,-8.32033 h -31.08"
         style="fill:#ffffff;fill-opacity:1;fill-rule:nonzero;stroke:none"
         id="path68" />
      <path
         d="m 4075.96,17.0508 c 0,-4.4492 -3.89,-8.32033 -8.33,-8.32033 h -31.07 c -4.44,0 -8.33,3.87113 -8.33,8.32033 V 184.621 l -127.05,205.301 c -2.24,3.316 0,7.207 3.9,7.207 h 36.59 c 5.01,0 9.99,-2.77 12.76,-7.207 l 97.67,-165.91 97.66,165.91 c 2.78,4.437 7.75,7.207 12.76,7.207 h 37.71 c 3.35,0 5.56,-3.891 3.9,-7.207 L 4075.96,185.172 V 17.0508"
         style="fill:#ffffff;fill-opacity:1;fill-rule:nonzero;stroke:none"
         id="path70" />
    </g>
  </g>
</svg>
