<?xml version="1.0" encoding="UTF-8" standalone="no"?><!-- Generator: Gravit.io --><svg xmlns="http://www.w3.org/2000/svg" xmlns:xlink="http://www.w3.org/1999/xlink" style="isolation:isolate" viewBox="525 452 823.332 192.497" width="823.332pt" height="192.497pt"><g><g><path d=" M 1259.136 600.005 L 1224.22 618.183 L 1233.024 587.311 L 1259.136 600.005 Z  M 1237.539 571.483 L 1240.462 561.334 L 1248.675 564.413 L 1237.539 571.483 Z  M 1242.8 552.991 L 1246.811 538.941 L 1251.78 556.373 L 1242.8 552.991 Z  M 1261.907 591.755 L 1239.143 580.673 L 1255.728 570.177 L 1261.907 591.755 Z  M 1250.991 521.998 C 1250.47 520.271 1248.795 519.11 1246.834 519.11 C 1244.868 519.11 1243.192 520.271 1242.663 522.027 L 1209.623 637.96 C 1209.328 639.099 1209.498 640.326 1210.09 641.325 C 1210.67 642.301 1211.587 642.99 1212.618 643.249 C 1213.699 643.573 1214.907 643.437 1215.914 642.878 C 1216.912 642.319 1217.647 641.373 1217.928 640.317 L 1220.946 629.628 L 1265.971 606.135 L 1275.731 640.3 C 1276.239 642.173 1277.908 643.432 1279.883 643.432 C 1280.262 643.432 1280.716 643.359 1280.984 643.268 C 1282.094 642.984 1283.024 642.283 1283.604 641.29 C 1284.187 640.286 1284.344 639.062 1284.031 637.936 L 1250.991 521.998" fill="rgb(144,212,89)"/><path d=" M 1262.666 535.107 C 1262.919 536.241 1263.596 537.204 1264.574 537.821 C 1266.582 539.082 1269.247 538.48 1270.514 536.48 C 1273.355 532.001 1274.856 526.823 1274.856 521.503 C 1274.856 506.049 1262.295 493.477 1246.855 493.477 C 1231.403 493.477 1218.828 506.049 1218.828 521.503 C 1218.828 527.79 1220.87 533.742 1224.74 538.721 C 1225.566 539.763 1226.804 540.36 1228.132 540.36 C 1229.104 540.36 1230.044 540.035 1230.762 539.456 C 1232.636 537.995 1232.971 535.281 1231.511 533.409 C 1228.842 529.974 1227.432 525.857 1227.432 521.503 C 1227.432 510.807 1236.135 502.104 1246.834 502.104 C 1257.527 502.104 1266.231 510.807 1266.231 521.503 C 1266.231 525.208 1265.192 528.793 1263.236 531.865 C 1262.618 532.83 1262.416 533.98 1262.666 535.107 Z " fill="rgb(144,212,89)"/><path d=" M 1269.634 562.632 C 1269.951 562.703 1270.272 562.735 1270.583 562.735 C 1271.4 562.735 1272.196 562.505 1272.902 562.054 C 1286.763 553.116 1295.042 537.956 1295.042 521.503 C 1295.042 494.931 1273.427 473.312 1246.855 473.312 C 1220.286 473.312 1198.666 494.931 1198.666 521.503 C 1198.666 537.977 1206.944 553.135 1220.82 562.063 C 1222.714 563.25 1225.364 562.769 1226.808 560.76 C 1228.071 558.761 1227.482 556.093 1225.499 554.807 C 1214.115 547.459 1207.314 535.009 1207.314 521.503 C 1207.314 499.687 1225.063 481.94 1246.879 481.94 C 1268.694 481.94 1286.443 499.687 1286.443 521.503 C 1286.443 535.018 1279.642 547.456 1268.248 554.786 C 1266.271 556.07 1265.683 558.739 1266.943 560.737 C 1267.554 561.709 1268.512 562.382 1269.634 562.632" fill="rgb(144,212,89)"/><path d=" M 1246.834 452 C 1208.51 452 1177.331 483.177 1177.331 521.503 C 1177.331 547.339 1191.518 570.89 1214.351 582.963 C 1215.352 583.5 1216.507 583.614 1217.616 583.282 C 1218.727 582.946 1219.635 582.197 1220.175 581.181 C 1220.718 580.177 1220.83 579.018 1220.5 577.917 C 1220.166 576.808 1219.416 575.896 1218.392 575.346 C 1198.384 564.766 1185.958 544.135 1185.958 521.503 C 1185.958 487.935 1213.276 460.627 1246.855 460.627 C 1280.422 460.627 1307.734 487.935 1307.734 521.503 C 1307.734 544.148 1295.279 564.788 1275.223 575.373 C 1274.211 575.914 1273.466 576.816 1273.128 577.912 C 1272.786 579.02 1272.896 580.189 1273.435 581.192 C 1274.184 582.618 1275.646 583.505 1277.244 583.505 C 1277.878 583.505 1278.524 583.351 1279.238 583.012 C 1302.119 570.937 1316.332 547.37 1316.332 521.503 C 1316.332 483.177 1285.155 452 1246.834 452" fill="rgb(144,212,89)"/><path d=" M 1131.474 644.497 C 1129.951 644.497 1128.714 643.261 1128.714 641.737 L 1128.714 454.899 C 1128.714 453.375 1129.951 452.139 1131.474 452.139 C 1132.999 452.139 1134.236 453.375 1134.236 454.899 L 1134.236 641.737 C 1134.236 643.261 1132.999 644.497 1131.474 644.497 Z " fill="rgb(255,255,255)"/><path d=" M 637.615 463.912 L 625.41 463.912 C 624.67 463.912 624.078 463.319 624.078 462.579 L 624.078 454.219 C 624.078 453.479 624.67 452.887 625.41 452.887 L 661.88 452.887 C 662.622 452.887 663.212 453.479 663.212 454.219 L 663.212 462.579 C 663.212 463.319 662.622 463.912 661.88 463.912 L 649.526 463.912 L 649.526 503.343 C 649.526 504.083 648.935 504.675 648.196 504.675 L 638.947 504.675 C 638.206 504.675 637.615 504.083 637.615 503.343 L 637.615 463.912" fill="rgb(255,255,255)"/><path d=" M 688.051 503.343 C 688.051 504.083 687.46 504.675 686.719 504.675 L 677.47 504.675 C 676.731 504.675 676.139 504.083 676.139 503.343 L 676.139 454.219 C 676.139 453.479 676.731 452.887 677.47 452.887 L 686.719 452.887 C 687.46 452.887 688.051 453.479 688.051 454.219 L 688.051 473.603 L 707.211 473.603 L 707.211 454.219 C 707.211 453.479 707.807 452.887 708.543 452.887 L 717.642 452.887 C 718.383 452.887 718.974 453.479 718.974 454.219 L 718.974 503.343 C 718.974 504.083 718.383 504.675 717.642 504.675 L 708.543 504.675 C 707.807 504.675 707.211 504.083 707.211 503.343 L 707.211 484.625 L 688.051 484.625 L 688.051 503.343" fill="rgb(255,255,255)"/><path d=" M 747.067 484.625 L 747.067 493.652 L 769.703 493.652 C 770.443 493.652 771.034 494.244 771.034 494.984 L 771.034 503.343 C 771.034 504.083 770.443 504.675 769.703 504.675 L 736.559 504.675 C 735.819 504.675 735.228 504.083 735.228 503.343 L 735.228 454.219 C 735.228 453.479 735.819 452.887 736.559 452.887 L 769.703 452.887 C 770.443 452.887 771.034 453.479 771.034 454.219 L 771.034 462.579 C 771.034 463.319 770.443 463.912 769.703 463.912 L 747.067 463.912 L 747.067 473.603 L 764.454 473.603 C 765.194 473.603 765.786 474.193 765.786 474.935 L 765.786 483.293 C 765.786 484.033 765.194 484.625 764.454 484.625 L 747.067 484.625" fill="rgb(255,255,255)"/><path d=" M 837.808 469.977 C 837.808 467.832 836.627 463.837 831.3 463.837 L 822.864 463.837 L 822.864 476.191 L 831.522 476.191 C 836.627 476.044 837.808 471.901 837.808 469.977 L 837.808 469.977 Z  M 822.864 503.343 C 822.864 504.083 822.274 504.675 821.532 504.675 L 812.284 504.675 C 811.544 504.675 810.954 504.083 810.954 503.343 L 810.954 454.219 C 810.954 453.479 811.544 452.887 812.284 452.887 L 830.931 452.887 C 845.284 452.887 849.648 462.948 849.648 469.977 C 849.648 480.335 840.55 487.288 831.815 487.288 L 822.864 487.288 L 822.864 503.343 Z " fill="rgb(255,255,255)"/><path d=" M 875.592 503.343 C 875.592 504.083 875.002 504.675 874.262 504.675 L 865.014 504.675 C 864.272 504.675 863.682 504.083 863.682 503.343 L 863.682 454.219 C 863.682 453.479 864.272 452.887 865.014 452.887 L 874.262 452.887 C 875.002 452.887 875.592 453.479 875.592 454.219 L 875.592 473.603 L 894.754 473.603 L 894.754 454.219 C 894.754 453.479 895.346 452.887 896.084 452.887 L 905.184 452.887 C 905.924 452.887 906.516 453.479 906.516 454.219 L 906.516 503.343 C 906.516 504.083 905.924 504.675 905.184 504.675 L 896.084 504.675 C 895.346 504.675 894.754 504.083 894.754 503.343 L 894.754 484.625 L 875.592 484.625 L 875.592 503.343" fill="rgb(255,255,255)"/><path d=" M 960.644 478.708 C 960.644 474.859 958.943 463.171 947.031 463.171 C 935.047 463.171 933.346 474.859 933.346 478.708 C 933.346 482.552 935.047 494.391 947.031 494.391 C 958.943 494.391 960.644 482.552 960.644 478.708 Z  M 972.704 478.708 C 972.704 489.804 966.638 505.489 947.031 505.489 C 927.351 505.489 921.286 489.804 921.286 478.708 C 921.286 467.907 927.351 452 947.031 452 C 966.638 452 972.704 467.907 972.704 478.708 Z " fill="rgb(255,255,255)"/><path d=" M 988.804 504.675 C 988.064 504.675 987.472 504.083 987.472 503.343 L 987.472 453.257 C 987.472 452.667 987.92 452.147 988.512 452.147 C 989.251 452.147 989.915 452.443 990.434 452.887 L 1018.55 479.149 L 1018.55 454.219 C 1018.55 453.479 1019.14 452.887 1019.882 452.887 L 1029.054 452.887 C 1029.794 452.887 1030.384 453.479 1030.384 454.219 L 1030.384 504.083 C 1030.384 504.6 1029.943 505.045 1029.423 505.045 C 1028.832 505.045 1028.24 504.824 1027.794 504.379 L 999.384 477.523 L 999.384 503.343 C 999.384 504.083 998.794 504.675 998.054 504.675 L 988.804 504.675 Z " fill="rgb(255,255,255)"/><path d=" M 1059.959 484.625 L 1059.959 493.652 L 1082.594 493.652 C 1083.335 493.652 1083.926 494.244 1083.926 494.984 L 1083.926 503.343 C 1083.926 504.083 1083.335 504.675 1082.594 504.675 L 1049.451 504.675 C 1048.71 504.675 1048.119 504.083 1048.119 503.343 L 1048.119 454.219 C 1048.119 453.479 1048.71 452.887 1049.451 452.887 L 1082.594 452.887 C 1083.335 452.887 1083.926 453.479 1083.926 454.219 L 1083.926 462.579 C 1083.926 463.319 1083.335 463.912 1082.594 463.912 L 1059.959 463.912 L 1059.959 473.603 L 1077.34 473.603 C 1078.08 473.603 1078.672 474.193 1078.672 474.935 L 1078.672 483.293 C 1078.672 484.033 1078.08 484.625 1077.34 484.625 L 1059.959 484.625" fill="rgb(255,255,255)"/><path d=" M 573.223 522.735 C 573.517 522.07 574.185 521.625 574.925 521.625 C 575.665 521.625 576.328 522.07 576.626 522.808 L 594.604 572.747 C 594.826 573.339 594.379 574.005 593.715 574.005 L 583.798 574.005 C 582.986 574.005 582.323 573.487 582.025 572.747 L 573.517 547.001 L 561.533 573.487 C 561.235 574.153 560.572 574.596 559.831 574.596 C 559.091 574.596 558.423 574.153 558.129 573.487 L 546.146 547.001 L 537.637 572.747 C 537.34 573.487 536.676 574.005 535.86 574.005 L 525.947 574.005 C 525.279 574.005 524.836 573.339 525.058 572.747 L 543.035 522.808 C 543.333 522.07 543.998 521.625 544.665 521.625 C 545.405 521.625 546.146 522.07 546.439 522.735 L 559.831 551.736 L 573.223 522.735 Z " fill="rgb(255,255,255)"/><path d=" M 623.573 554.25 L 631.341 554.25 L 627.491 544.634 L 623.573 554.25 Z  M 651.981 572.821 C 652.275 573.339 651.834 574.005 651.242 574.005 L 640.662 574.005 C 639.849 574.005 639.109 573.487 638.811 572.747 L 635.115 563.499 L 619.871 563.499 L 616.175 572.747 C 615.877 573.487 615.137 574.005 614.324 574.005 L 603.745 574.005 C 603.154 574.005 602.711 573.339 602.932 572.821 L 625.645 522.808 C 625.937 522.07 626.678 521.625 627.418 521.625 C 628.159 521.625 628.898 522.07 629.192 522.808 L 651.981 572.821 Z " fill="rgb(255,255,255)"/><path d=" M 701.818 558.543 C 701.818 567.568 693.976 574.596 682.656 574.596 C 675.48 574.596 669.634 572.821 663.348 569.565 C 662.68 569.269 662.459 568.455 662.756 567.789 L 666.823 560.244 C 667.122 559.579 667.934 559.355 668.602 559.651 C 673.336 561.797 677.922 563.499 682.215 563.499 C 686.06 563.499 689.314 561.65 689.314 559.059 C 689.314 555.805 685.32 554.399 680.436 552.846 C 672.966 550.404 663.57 547.518 663.57 536.866 C 663.57 527.172 670.744 521.404 680.658 521.404 C 683.915 521.404 690.718 521.847 699.375 525.841 C 700.043 526.211 700.338 526.951 700.043 527.692 L 696.712 535.311 C 696.419 535.977 695.679 536.274 694.939 535.977 C 691.684 534.794 685.54 532.573 681.398 532.573 C 678.292 532.573 675.407 533.537 675.48 536.347 C 675.778 539.529 680.955 540.935 686.724 543.006 C 693.9 545.521 701.818 549.073 701.818 558.543" fill="rgb(255,255,255)"/><path d=" M 724.584 533.242 L 712.379 533.242 C 711.639 533.242 711.048 532.648 711.048 531.907 L 711.048 523.548 C 711.048 522.808 711.639 522.217 712.379 522.217 L 748.85 522.217 C 749.59 522.217 750.182 522.808 750.182 523.548 L 750.182 531.907 C 750.182 532.648 749.59 533.242 748.85 533.242 L 736.496 533.242 L 736.496 572.672 C 736.496 573.412 735.906 574.005 735.164 574.005 L 725.915 574.005 C 725.176 574.005 724.584 573.412 724.584 572.672 L 724.584 533.242" fill="rgb(255,255,255)"/><path d=" M 804.972 554.25 L 812.74 554.25 L 808.895 544.634 L 804.972 554.25 Z  M 833.382 572.821 C 833.68 573.339 833.232 574.005 832.64 574.005 L 822.062 574.005 C 821.248 574.005 820.508 573.487 820.215 572.747 L 816.515 563.499 L 801.276 563.499 L 797.574 572.747 C 797.282 573.487 796.54 574.005 795.724 574.005 L 785.148 574.005 C 784.552 574.005 784.111 573.339 784.331 572.821 L 807.044 522.808 C 807.343 522.07 808.082 521.625 808.823 521.625 C 809.559 521.625 810.298 522.07 810.596 522.808 L 833.382 572.821 Z " fill="rgb(255,255,255)"/><path d=" M 865.171 562.982 C 877.155 562.982 878.856 551.883 878.856 548.037 C 878.856 544.189 877.155 533.167 865.171 533.167 L 858.288 533.167 L 858.288 562.982 L 865.171 562.982 Z  M 847.856 574.005 C 847.116 574.005 846.524 573.412 846.524 572.672 L 846.524 523.548 C 846.524 522.808 847.116 522.217 847.856 522.217 L 865.171 522.217 C 884.851 522.217 890.84 537.236 890.84 548.037 C 890.84 559.134 884.851 574.005 865.171 574.005 L 847.856 574.005 Z " fill="rgb(255,255,255)"/><path d=" M 924.255 573.487 C 923.962 574.153 923.222 574.596 922.48 574.596 C 921.74 574.596 921 574.153 920.707 573.487 L 897.995 523.401 C 897.774 522.883 898.215 522.217 898.807 522.217 L 909.387 522.217 C 910.199 522.217 910.94 522.735 911.238 523.474 L 922.554 551.587 L 933.874 523.474 C 934.172 522.735 934.911 522.217 935.724 522.217 L 946.303 522.217 C 946.896 522.217 947.338 522.883 947.044 523.401 L 924.255 573.487 Z " fill="rgb(255,255,255)"/><path d=" M 972.023 572.672 C 972.023 573.412 971.431 574.005 970.691 574.005 L 961.519 574.005 C 960.78 574.005 960.187 573.412 960.187 572.672 L 960.187 523.548 C 960.187 522.808 960.78 522.217 961.519 522.217 L 970.691 522.217 C 971.431 522.217 972.023 522.808 972.023 523.548 L 972.023 572.672 Z " fill="rgb(255,255,255)"/><path d=" M 1026.386 538.568 C 1025.871 539.01 1025.054 539.01 1024.539 538.493 C 1021.43 535.311 1016.474 532.648 1012.551 532.648 C 1000.568 532.648 998.866 544.189 998.866 548.037 C 998.866 551.883 1000.568 563.352 1012.628 563.352 C 1016.771 563.352 1021.651 560.982 1025.13 558.098 C 1025.722 557.654 1026.534 557.654 1026.982 558.247 L 1032.082 564.313 C 1032.6 564.905 1032.528 565.792 1032.01 566.31 C 1026.611 571.416 1020.396 574.67 1012.551 574.67 C 992.871 574.67 986.804 559.134 986.804 548.037 C 986.804 537.236 992.871 521.477 1012.551 521.477 C 1020.987 521.477 1027.126 525.104 1032.452 530.873 C 1032.971 531.391 1032.899 532.278 1032.379 532.797 L 1026.386 538.568" fill="rgb(255,255,255)"/><path d=" M 1059.959 553.955 L 1059.959 562.982 L 1082.594 562.982 C 1083.335 562.982 1083.926 563.573 1083.926 564.313 L 1083.926 572.672 C 1083.926 573.412 1083.335 574.005 1082.594 574.005 L 1049.451 574.005 C 1048.71 574.005 1048.119 573.412 1048.119 572.672 L 1048.119 523.548 C 1048.119 522.808 1048.71 522.217 1049.451 522.217 L 1082.594 522.217 C 1083.335 522.217 1083.926 522.808 1083.926 523.548 L 1083.926 531.907 C 1083.926 532.648 1083.335 533.242 1082.594 533.242 L 1059.959 533.242 L 1059.959 542.932 L 1077.34 542.932 C 1078.08 542.932 1078.672 543.523 1078.672 544.263 L 1078.672 552.623 C 1078.672 553.363 1078.08 553.955 1077.34 553.955 L 1059.959 553.955" fill="rgb(255,255,255)"/><path d=" M 736.947 601.535 C 736.506 601.903 735.764 601.903 735.318 601.535 C 731.914 598.723 726.588 596.06 721.411 596.06 C 704.616 596.06 702.25 611.967 702.25 617.219 C 702.25 622.544 704.616 638.303 721.411 638.303 C 726.959 638.303 731.914 635.786 735.466 633.049 C 735.986 632.681 736.648 632.754 737.019 633.199 C 737.759 634.16 738.5 634.974 739.312 635.936 C 739.683 636.453 739.61 637.119 739.168 637.562 C 734.654 641.484 729.179 644 721.411 644 C 701.659 644 695.814 628.315 695.814 617.219 C 695.814 606.416 701.659 590.66 721.411 590.66 C 729.472 590.66 734.875 593.397 739.24 597.613 C 739.683 598.057 739.683 598.797 739.24 599.24 L 736.947 601.535 Z " fill="rgb(255,255,255)"/><path d=" M 795.814 617.367 C 795.814 612.113 793.444 596.578 776.726 596.578 C 759.931 596.578 757.566 612.113 757.566 617.367 C 757.566 622.619 759.931 638.303 776.726 638.303 C 793.444 638.303 795.814 622.619 795.814 617.367 L 795.814 617.367 Z  M 802.323 617.367 C 802.323 628.464 796.478 644 776.726 644 C 756.974 644 751.128 628.464 751.128 617.367 C 751.128 606.566 756.974 590.807 776.726 590.807 C 796.478 590.807 802.323 606.566 802.323 617.367" fill="rgb(255,255,255)"/><path d=" M 846.318 642.964 C 846.096 643.555 845.506 643.925 844.914 643.925 C 844.246 643.925 843.731 643.555 843.434 642.964 L 828.195 606.566 L 816.798 642.299 C 816.654 642.89 816.063 643.333 815.395 643.333 L 810.808 643.333 C 810.29 643.333 809.848 642.817 810.068 642.299 L 826.346 591.916 C 826.494 591.472 827.008 591.103 827.527 591.103 C 828.046 591.103 828.566 591.4 828.787 591.916 L 844.914 631.127 L 861.114 591.916 C 861.262 591.4 861.782 591.103 862.224 591.103 C 862.742 591.103 863.184 591.4 863.41 591.916 L 879.759 642.299 C 879.98 642.817 879.538 643.333 879.019 643.333 L 874.434 643.333 C 873.766 643.333 873.174 642.89 872.954 642.299 L 861.56 606.492 L 846.318 642.964 Z " fill="rgb(255,255,255)"/><path d=" M 912.502 618.108 C 921.231 617.884 923.226 610.856 923.226 607.452 C 923.226 603.828 921.303 596.801 912.203 596.801 L 898.96 596.801 L 898.96 618.108 L 912.502 618.108 Z  M 898.96 642.224 C 898.96 642.817 898.442 643.333 897.851 643.333 L 893.783 643.333 C 893.191 643.333 892.674 642.817 892.674 642.224 L 892.674 592.657 C 892.674 592.066 893.191 591.547 893.783 591.547 L 911.76 591.547 C 925.447 591.547 929.514 601.016 929.514 607.452 C 929.514 617.144 920.86 623.508 912.867 623.508 L 898.96 623.508 L 898.96 642.224 Z " fill="rgb(255,255,255)"/><path d=" M 946.439 623.879 L 962.794 623.879 L 954.578 603.679 L 946.439 623.879 Z  M 964.936 629.055 L 944.367 629.055 L 939.042 642.299 C 938.748 642.964 938.152 643.333 937.488 643.333 L 932.827 643.333 C 932.311 643.333 931.942 642.817 932.163 642.299 L 953.174 592.066 C 953.395 591.472 953.986 591.103 954.654 591.103 C 955.246 591.103 955.76 591.472 955.986 592.066 L 977.362 642.299 C 977.588 642.817 977.218 643.333 976.699 643.333 L 971.892 643.333 C 971.224 643.333 970.632 642.964 970.335 642.299 L 964.936 629.055" fill="rgb(255,255,255)"/><path d=" M 991.472 643.333 C 990.882 643.333 990.362 642.817 990.362 642.224 L 990.362 592.212 C 990.362 591.621 990.882 591.103 991.472 591.103 L 991.55 591.103 C 992.212 591.103 992.954 591.4 993.395 591.916 L 1025.727 629.279 L 1025.727 592.657 C 1025.727 592.066 1026.244 591.547 1026.838 591.547 L 1030.907 591.547 C 1031.499 591.547 1032.015 592.066 1032.015 592.657 L 1032.015 642.743 C 1032.015 643.333 1031.499 643.779 1030.907 643.779 C 1030.24 643.779 1029.576 643.483 1029.13 642.964 L 996.727 605.456 L 996.727 642.224 C 996.727 642.817 996.207 643.333 995.616 643.333 L 991.472 643.333 Z " fill="rgb(255,255,255)"/><path d=" M 1068.462 642.224 C 1068.462 642.817 1067.943 643.333 1067.351 643.333 L 1063.208 643.333 C 1062.616 643.333 1062.098 642.817 1062.098 642.224 L 1062.098 619.881 L 1045.158 592.508 C 1044.859 592.066 1045.158 591.547 1045.678 591.547 L 1050.556 591.547 C 1051.224 591.547 1051.888 591.916 1052.258 592.508 L 1065.28 614.629 L 1078.302 592.508 C 1078.672 591.916 1079.335 591.547 1080.003 591.547 L 1085.031 591.547 C 1085.478 591.547 1085.772 592.066 1085.551 592.508 L 1068.462 619.808 L 1068.462 642.224 Z " fill="rgb(255,255,255)"/></g><g clip-path="url(#_clipPath_TlXp1vN3aTXV8gwykN1YY3oUcbnJJ1dy)"><text transform="matrix(1,0,0,1,1316.772,473.377)" style="font-family:'Open Sans';font-weight:400;font-size:20px;font-style:normal;fill:#ffffff;stroke:none;">TM</text></g><defs><clipPath id="_clipPath_TlXp1vN3aTXV8gwykN1YY3oUcbnJJ1dy"><rect x="0" y="0" width="32" height="27.236" transform="matrix(1,0,0,1,1316.332,452)"/></clipPath></defs></g></svg>